<svg width="68" height="68" viewBox="0 0 68 68" fill="none" xmlns="http://www.w3.org/2000/svg">
<path d="M27.6187 26.3848C28.5752 23.574 27.0711 20.5189 24.2598 19.5622C21.4484 18.6055 18.3941 20.1094 17.4375 22.9202C16.4804 25.733 17.9833 28.7865 20.7952 29.7434C23.607 30.7002 26.6615 29.1976 27.6187 26.3848Z" fill="white"/>
<path d="M49.3131 29.1972C46.5023 28.2407 43.4474 29.7444 42.4909 32.5552C41.5337 35.368 43.038 38.4209 45.8488 39.3774C48.6602 40.3341 51.7144 38.8324 52.6716 36.0196C53.6281 33.2088 52.1249 30.1541 49.3131 29.1972Z" fill="white"/>
<path d="M41.0295 38.3803C40.824 37.8237 40.4949 37.1483 40.0999 36.423C39.2419 33.9115 37.2791 31.8076 34.5727 30.8866C32.1639 30.0669 29.6515 30.35 27.5681 31.4545C26.4413 31.9151 25.4171 32.3904 24.7185 32.8303L24.2524 33.1203C22.0792 34.4704 19.3745 36.1497 18.0431 40.1082C16.8072 43.7845 18.7801 47.791 22.4412 49.0368C23.4564 49.3847 24.5384 49.4934 25.6025 49.3544C26.6667 49.2153 27.6843 48.8323 28.5761 48.2352C28.9185 49.2526 29.4915 50.1771 30.2502 50.9365C31.009 51.6959 31.933 52.2697 32.9501 52.613C36.6097 53.8583 40.6162 51.8871 41.8799 48.2198C43.2394 44.2708 42.1199 41.2901 41.2217 38.8949L41.0295 38.3803Z" fill="white"/>
<path d="M36.0305 27.7597C39.1283 28.8139 42.4942 27.1572 43.5483 24.0594C44.6025 20.9616 42.9458 17.5957 39.848 16.5416C36.7502 15.4874 33.3843 17.1441 32.3301 20.2419C31.276 23.3397 32.9327 26.7056 36.0305 27.7597Z" fill="white"/>
</svg>
